<?xml version="1.0" encoding="utf-8"?>
<!-- Generator: Adobe Illustrator 25.0.0, SVG Export Plug-In . SVG Version: 6.00 Build 0)  -->
<svg version="1.1" id="图层_1" xmlns="http://www.w3.org/2000/svg" xmlns:xlink="http://www.w3.org/1999/xlink" x="0px" y="0px"
	 viewBox="0 0 1920 1080" style="enable-background:new 0 0 1920 1080;" xml:space="preserve">
<style type="text/css">
	.st0{fill:#FFFFFF;stroke:#000000;stroke-width:2;stroke-miterlimit:10;}
	.st1{fill:#1A479C;}
</style>
<g id="图层_1">
	
		<image style="overflow:visible;opacity:0.88;" width="778" height="778" xlink:href="98F0189B.png"  transform="matrix(1 0 0 1 588 162)">
	</image>
	<g>
		<g>
			<path class="st0" d="M1238.6,865H681.4c-25.6,0-46.4-20.7-46.4-46.4V261.4c0-25.6,20.7-46.4,46.4-46.4h557.2
				c25.6,0,46.4,20.7,46.4,46.4v557.2C1284.9,844.2,1264.2,865,1238.6,865z"/>
			<path class="st1" d="M691.4,760.5C775,616,858.5,471.6,942.2,327.2l26.6,15.3L733.2,751.8C719.3,754.7,705.3,757.6,691.4,760.5z"
				/>
			<path class="st1" d="M698.8,758.4c78.9-15.1,157.8-30.1,236.6-45.2l-5.6-30.2c-72.1,13.2-144.3,26.4-216.5,39.6
				C708.5,734.5,703.6,746.4,698.8,758.4z"/>
			<path class="st1" d="M871.6,661c43.9-8.4,87.8-16.8,131.8-25.2c-1.9-10.2-3.9-20.6-5.8-30.8c-40.2,7.1-80.5,14.3-120.7,21.4
				C875.1,637.8,873.3,649.4,871.6,661z"/>
			<path class="st1" d="M1051,554.1c38.5-7.3,76.9-14.7,115.4-22c7.7-11.7,15.4-23.4,23.1-35.1c-43.3,8.3-86.5,16.5-129.8,24.7
				C1056.8,532.5,1053.9,543.3,1051,554.1z"/>
			<path class="st1" d="M1121.3,603.8c30.9-8.6,61.7-17.3,92.6-25.9c-2.5-8-4.9-15.9-7.5-23.8c-38.6,11.6-77.2,23.3-115.8,34.9
				C1100.8,593.9,1111.1,598.8,1121.3,603.8z"/>
			<path class="st1" d="M838.8,666c50.7-83.3,101.3-166.7,152-250c7.8,3.9,15.6,7.8,23.3,11.7c-47.5,77.7-95,155.5-142.5,233.2
				C860.7,662.7,849.8,664.4,838.8,666z"/>
			<path class="st1" d="M990.1,606.2c23.2-28.2,46.4-56.3,69.6-84.6c7.5,7.5,15.1,15.1,22.6,22.6c-26.3,30.5-52.5,61-78.8,91.5
				C998.9,625.9,994.5,616,990.1,606.2z"/>
			<path class="st1" d="M1069.4,616.2c26-36.5,52-73.1,78-109.6c18.9-4.4,37.8-8.8,56.7-13.3c-27.5,36.8-55.1,73.6-82.6,110.5
				C1104,607.9,1086.6,612,1069.4,616.2z"/>
		</g>
	</g>
</g>
</svg>
