<?xml version="1.0" encoding="utf-8"?>
<!-- Generator: Adobe Illustrator 25.0.0, SVG Export Plug-In . SVG Version: 6.00 Build 0)  -->
<svg version="1.1" id="图层_1" xmlns="http://www.w3.org/2000/svg" xmlns:xlink="http://www.w3.org/1999/xlink" x="0px" y="0px"
	 viewBox="0 0 1920 1080" style="enable-background:new 0 0 1920 1080;" xml:space="preserve">
<style type="text/css">
	.st0{fill:#FFFFFF;stroke:#000000;stroke-miterlimit:10;}
	.st1{fill:#1A479C;}
</style>
<path class="st0" d="M1411.4,1066.5H508.6c-41.5,0-75.1-33.6-75.1-75.1V88.6c0-41.5,33.6-75.1,75.1-75.1h902.8
	c41.5,0,75.1,33.6,75.1,75.1v902.8C1486.5,1032.9,1452.9,1066.5,1411.4,1066.5z"/>
<path class="st1" d="M524.8,897.2c135.4-234,270.8-468,406.3-702l43.1,24.8L592.6,883.2C570,887.8,547.4,892.5,524.8,897.2z"/>
<path class="st1" d="M536.8,893.8c127.8-24.4,255.6-48.8,383.3-73.2l-9.1-48.9c-116.9,21.4-233.8,42.8-350.8,64.2
	C552.5,855.2,544.6,874.5,536.8,893.8z"/>
<path class="st1" d="M816.8,736c71.2-13.6,142.3-27.3,213.5-40.9c-3.1-16.6-6.3-33.3-9.4-49.9c-65.2,11.5-130.4,23.1-195.6,34.6
	C822.5,698.5,819.6,717.3,816.8,736z"/>
<path class="st1" d="M1107.4,562.8c62.3-11.9,124.6-23.8,186.9-35.7c12.5-19,24.9-37.9,37.4-56.9c-70.1,13.4-140.2,26.7-210.3,40.1
	C1116.8,527.8,1112.1,545.3,1107.4,562.8z"/>
<path class="st1" d="M1221.4,643.3c50-14,100-28,150-42c-4-12.9-8-25.7-12.1-38.6c-62.6,18.8-125.1,37.7-187.7,56.5
	C1188.2,627.3,1204.8,635.3,1221.4,643.3z"/>
<path class="st1" d="M763.6,744.2c82.1-135,164.1-270.1,246.2-405.1c12.6,6.3,25.2,12.7,37.8,19c-77,125.9-153.9,251.9-230.9,377.8
	C799.1,738.8,781.4,741.5,763.6,744.2z"/>
<path class="st1" d="M1008.7,647.2c37.6-45.7,75.1-91.3,112.7-137c12.2,12.2,24.4,24.4,36.6,36.6c-42.6,49.4-85.1,98.8-127.7,148.3
	C1023.1,679.2,1015.9,663.2,1008.7,647.2z"/>
<path class="st1" d="M1137.2,663.4c42.1-59.2,84.2-118.4,126.3-177.6c30.6-7.2,61.2-14.3,91.8-21.5c-44.6,59.7-89.3,119.3-133.9,179
	C1193.3,650,1165.2,656.7,1137.2,663.4z"/>
</svg>
